<?xml version="1.0" encoding="iso-8859-1"?>
<!-- Generator: Adobe Illustrator 19.0.0, SVG Export Plug-In . SVG Version: 6.00 Build 0)  -->
<svg version="1.1" id="Layer_1" xmlns="http://www.w3.org/2000/svg" xmlns:xlink="http://www.w3.org/1999/xlink" x="0px" y="0px"
	 viewBox="0 0 512 512" style="enable-background:new 0 0 512 512;" xml:space="preserve">
<g>
	<path style="fill:#FFFFFF;" d="M223.975,211.966v27.307c0,11.45-9.282,20.731-20.731,20.731H84.582
		c-11.45,0-20.731-9.282-20.731-20.731v-27.307"/>
	<path style="fill:#FFFFFF;" d="M448.151,211.966v27.307c0,11.45-9.282,20.731-20.731,20.731H308.757
		c-11.45,0-20.731-9.282-20.731-20.731v-27.307"/>
</g>
<g>
	<path style="fill:#F15A24;" d="M167.534,212.808h56.441c8.843,0,15.372-7.851,15.372-16.694v-0.039
		c0-8.843-6.529-15.531-15.372-15.531H63.849c-8.843,0-17.045,6.607-17.045,15.45v0.141c0,8.843,8.201,16.673,17.045,16.673h55.809"
		/>
	<path style="fill:#F15A24;" d="M392.341,212.808h55.809c8.843,0,16.004-7.851,16.004-16.694v-0.039
		c0-8.843-7.161-15.531-16.004-15.531H288.026c-8.843,0-16.413,6.607-16.413,15.45v0.141c0,8.843,7.57,16.673,16.413,16.673h56.441"
		/>
</g>
<g>
	<rect x="119.897" y="179.94" style="fill:#333333;" width="48.042" height="80.063"/>
	<rect x="344.069" y="179.94" style="fill:#333333;" width="48.042" height="80.063"/>
</g>
<polyline style="fill:#A67C52;" points="32.234,291.907 32.234,332.497 63.457,332.497 63.457,291.907 "/>
<g>
	<polyline style="fill:#D1B08A;" points="448.543,291.907 448.543,332.497 479.766,332.497 479.766,291.907 	"/>
	<rect x="7.806" y="260.007" style="fill:#D1B08A;" width="496.386" height="32.025"/>
</g>
<rect x="7.806" y="260.007" style="fill:#A67C52;" width="184.144" height="32.025"/>
<path d="M512,252.198h-59.151c1.983-3.883,3.108-8.274,3.108-12.925v-20.504c9.497-3.291,16.524-12.34,16.524-22.692
	c0-12.932-11.141-23.858-24.33-23.858H288.026c-13.068,0-23.699,10.667-23.699,23.776v0.141c0,10.446,6.651,19.347,15.894,22.617
	v20.52c0,4.651,1.126,9.042,3.108,12.925h-54.654c1.983-3.883,3.108-8.274,3.108-12.925V218.75
	c9.243-3.274,15.894-12.188,15.894-22.675c0-13.155-10.631-23.858-23.699-23.858H63.849c-13.416,0-24.33,10.667-24.33,23.776v0.141
	c0,10.312,7.028,19.348,16.524,22.635v20.503c0,4.651,1.126,9.042,3.108,12.925H0v47.637h23.908v39.948h47.876v-39.948h368.434
	v39.948h47.876v-39.948H512L512,252.198L512,252.198z M450.854,188.277c3.414,1.132,6.016,4.297,6.016,7.837
	c0,4.458-4.074,8.368-8.719,8.368h-13.502L450.854,188.277z M399.627,187.83h29.595l-16.652,16.652h-12.943V187.83z
	 M399.627,220.094h8.326v8.326h15.612v-8.326h16.78v8.326h-8.454v15.612h7.535c-1.9,4.776-6.561,8.166-12.006,8.166h-3.855v-8.166
	h-15.612v8.166h-8.326L399.627,220.094L399.627,220.094z M351.751,187.83h32.264v64.368h-32.264V187.83z M331.206,187.83h4.933
	v16.652h-21.586L331.206,187.83z M327.813,228.42v-8.326h8.326v32.104h-8.326v-8.166h-15.612v8.166h-3.446
	c-5.445,0-10.105-3.39-12.006-8.166h7.125V228.42h-8.044v-8.326h16.37v8.326H327.813z M279.938,196.135v-0.141
	c0-4.578,3.552-8.165,8.088-8.165h21.103l-16.652,16.652h-4.45C283.566,204.482,279.938,200.738,279.938,196.135z M226.651,188.305
	c3.146,1.131,5.412,4.19,5.412,7.81c0,4.614-3.628,8.368-8.088,8.368h-13.503L226.651,188.305z M175.86,187.83h29.186
	l-16.652,16.652H175.86V187.83z M175.86,220.094h8.326v8.326h15.612v-8.326h16.37v8.326h-8.044v15.612h7.125
	c-1.9,4.776-6.561,8.166-12.006,8.166h-3.446v-8.166h-15.612v8.166h-8.326v-32.104H175.86z M127.985,187.83h32.264v64.368h-32.264
	C127.985,252.198,127.985,187.83,127.985,187.83z M107.031,187.83h5.342v16.652H90.379L107.031,187.83z M104.047,228.42v-8.326
	h8.326v32.104h-8.326v-8.166H88.436v8.166h-3.855c-5.445,0-10.105-3.39-12.006-8.166h7.534V228.42h-8.454v-8.326h16.78v8.326
	H104.047z M55.131,196.135v-0.141c0-4.349,4.075-8.165,8.719-8.165h21.104l-16.652,16.652h-4.451
	C59.205,204.482,55.131,200.581,55.131,196.135z M56.172,324.171H39.519v-24.336h16.652V324.171z M472.481,324.171h-16.652v-24.336
	h16.652V324.171z M496.388,284.223H15.612v-16.414h293.145h118.664h68.969v16.414H496.388z"/>
<g>
</g>
<g>
</g>
<g>
</g>
<g>
</g>
<g>
</g>
<g>
</g>
<g>
</g>
<g>
</g>
<g>
</g>
<g>
</g>
<g>
</g>
<g>
</g>
<g>
</g>
<g>
</g>
<g>
</g>
</svg>
