<?xml version="1.0" encoding="iso-8859-1"?>
<!-- Generator: Adobe Illustrator 19.0.0, SVG Export Plug-In . SVG Version: 6.00 Build 0)  -->
<svg version="1.1" id="Layer_1" xmlns="http://www.w3.org/2000/svg" xmlns:xlink="http://www.w3.org/1999/xlink" x="0px" y="0px"
	 viewBox="0 0 511.999 511.999" style="enable-background:new 0 0 511.999 511.999;" xml:space="preserve">
<polyline style="fill:#4D4D4D;" points="191.694,136.481 191.694,119.788 152.047,119.788 152.047,215.775 191.694,215.775 
	191.694,200.125 "/>
<circle style="fill:#FFFFFF;" cx="63.832" cy="143.981" r="56.007"/>
<rect x="7.825" y="248.002" style="fill:#D1B08A;" width="496.057" height="176.022"/>
<polygon style="fill:#C69C6D;" points="287.859,424.02 7.825,424.02 7.825,247.999 399.872,247.999 "/>
<path style="fill:#8CC63F;" d="M462.48,400.017h-93.21c-9.611,0-17.403-7.792-17.403-17.403v-93.21
	c0-9.611,7.792-17.403,17.403-17.403h93.21c9.611,0,17.403,7.792,17.403,17.403v93.21
	C479.882,392.226,472.091,400.017,462.48,400.017z"/>
<path style="fill:#C7B299;" d="M142.441,400.017H49.23c-9.611,0-17.403-7.792-17.403-17.403v-93.21
	c0-9.611,7.792-17.403,17.403-17.403h93.21c9.611,0,17.403,7.792,17.403,17.403v93.21
	C159.843,392.226,152.052,400.017,142.441,400.017z"/>
<path style="fill:#F2F2F2;" d="M47.83,143.986c0-23.875,14.966-44.204,36.005-52.264c-6.219-2.383-12.945-3.744-20.003-3.744
	c-30.932,0-56.007,25.075-56.007,56.007c0,30.932,25.076,56.007,56.007,56.007c7.057,0,13.783-1.361,20.003-3.744
	C62.795,188.19,47.83,167.86,47.83,143.986z"/>
<path style="fill:#FBB03B;" d="M453.881,376.014h-76.013c-1.104,0-1.998-0.894-1.998-1.998v-76.013c0-1.104,0.895-1.998,1.998-1.998
	h76.013c1.104,0,1.998,0.895,1.998,1.998v76.013C455.88,375.119,454.985,376.014,453.881,376.014z"/>
<path style="fill:#8CC63F;" d="M133.842,376.014H57.829c-1.104,0-1.998-0.894-1.998-1.998v-76.013c0-1.104,0.895-1.998,1.998-1.998
	h76.013c1.104,0,1.998,0.895,1.998,1.998v76.013C135.841,375.119,134.946,376.014,133.842,376.014z"/>
<path style="fill:#FFFFFF;" d="M133.926,376.014H57.745c-1.057,0-1.915-0.858-1.915-1.915v-38.09h80.01v38.09
	C135.841,375.157,134.983,376.014,133.926,376.014z"/>
<path d="M511.71,431.845H0V240.174h511.71V431.845z M15.65,416.195h480.41V255.824H15.65V416.195z"/>
<path d="M140.32,407.842H51.351c-15.079,0-27.348-12.269-27.348-27.348v-88.969c0-15.079,12.269-27.348,27.348-27.348h88.969
	c15.079,0,27.348,12.269,27.348,27.348v88.969C167.668,395.574,155.399,407.842,140.32,407.842z M51.351,279.827
	c-6.45,0-11.698,5.248-11.698,11.698v88.969c0,6.451,5.248,11.698,11.698,11.698h88.969c6.45,0,11.698-5.248,11.698-11.698v-88.969
	c0-6.45-5.248-11.698-11.698-11.698H51.351z"/>
<rect x="79.836" y="296.006" style="fill:#FBB03B;" width="32.003" height="40.002"/>
<circle style="fill:#FFFFFF;" cx="255.859" cy="336.008" r="64.009"/>
<path d="M255.856,407.842c-39.608,0-71.833-32.225-71.833-71.833s32.224-71.833,71.833-71.833s71.833,32.224,71.833,71.833
	S295.464,407.842,255.856,407.842z M255.856,279.827c-30.979,0-56.183,25.203-56.183,56.183s25.203,56.183,56.183,56.183
	s56.183-25.204,56.183-56.183S286.834,279.827,255.856,279.827z"/>
<circle style="fill:#ED1C24;" cx="255.859" cy="336.008" r="40.002"/>
<path style="fill:#009245;" d="M295.86,336.009c0,22.094-17.911,40.005-40.005,40.005s-40.005-17.911-40.005-40.005"/>
<path style="fill:#F15A24;" d="M256.381,296.004v39.754h39.479C295.86,335.759,293.942,296.642,256.381,296.004z"/>
<rect x="239.854" y="336.008" style="fill:#F7931E;" width="32.003" height="40.002"/>
<path d="M133.842,288.179H57.829c-5.416,0-9.823,4.407-9.823,9.823v76.013c0,5.417,4.407,9.824,9.823,9.824h76.013
	c5.417,0,9.824-4.407,9.824-9.824v-76.013C143.666,292.586,139.259,288.179,133.842,288.179z M128.016,327.413h-8.312V303.83h8.312
	V327.413z M87.36,327.413V303.83h16.693v23.583H87.36z M71.71,303.829v23.583h-8.054v-23.583H71.71z M119.704,368.189v-8.433h-15.65
	v8.433H87.36v-8.433H71.71v8.433h-8.054v-25.127H87.36v8.347h15.65v-8.347h25.006v25.127H119.704z"/>
<path d="M462.48,407.842h-93.21c-13.911,0-25.227-11.317-25.227-25.228v-93.21c0-13.911,11.317-25.228,25.227-25.228h93.21
	c13.911,0,25.228,11.317,25.228,25.228v93.21C487.707,396.525,476.39,407.842,462.48,407.842z M369.269,279.827
	c-5.281,0-9.577,4.296-9.577,9.578v93.21c0,5.281,4.297,9.578,9.577,9.578h93.21c5.281,0,9.578-4.296,9.578-9.578v-93.21
	c0-5.281-4.297-9.578-9.578-9.578H369.269z"/>
<rect x="399.871" y="296.006" style="fill:#ED1C24;" width="32.003" height="40.002"/>
<path style="fill:#FFFFFF;" d="M454.238,376.014h-76.725c-0.907,0-1.642-0.736-1.642-1.642v-38.363h80.01v38.363
	C455.88,375.279,455.144,376.014,454.238,376.014z"/>
<path d="M453.881,288.179h-76.013c-5.417,0-9.824,4.407-9.824,9.823v76.013c0,5.417,4.407,9.824,9.824,9.824h76.013
	c5.416,0,9.823-4.407,9.823-9.824v-76.013C463.704,292.586,459.298,288.179,453.881,288.179z M448.054,327.413h-9.087V303.83h9.087
	V327.413z M407.666,327.413V303.83h15.65v23.583H407.666z M392.016,303.829v23.583h-8.322v-23.583H392.016z M438.966,368.189v-8.433
	h-15.65v8.433h-15.65v-8.433h-15.65v8.433h-8.322v-25.127h23.972v8.347h15.65v-8.347h24.738v25.127H438.966z"/>
<path d="M255.856,288.179c-26.374,0-47.83,21.456-47.83,47.83c0,26.374,21.456,47.83,47.83,47.83s47.83-21.456,47.83-47.83
	C303.685,309.635,282.228,288.179,255.856,288.179z M232.385,357.991c-3.856-4.115-6.643-9.238-7.921-14.928h7.921V357.991z
	 M279.335,343.063h7.912c-1.277,5.686-4.061,10.806-7.912,14.919V343.063z M286.859,327.413h-23.175v-22.614
	C274.891,307.61,283.777,316.314,286.859,327.413z M248.035,304.795v22.617h-23.184C227.934,316.31,236.824,307.605,248.035,304.795
	z M248.035,367.223v-24.161h15.65v24.159c-2.508,0.63-5.129,0.968-7.829,0.968C253.158,368.189,250.54,367.851,248.035,367.223z"/>
<path d="M63.832,207.817C28.635,207.817,0,179.183,0,143.986s28.635-63.832,63.832-63.832s63.832,28.635,63.832,63.832
	S99.029,207.817,63.832,207.817z M63.832,95.804c-26.568,0-48.182,21.614-48.182,48.182s21.614,48.182,48.182,48.182
	s48.182-21.614,48.182-48.182S90.399,95.804,63.832,95.804z"/>
<circle style="fill:#806042;" cx="63.832" cy="143.981" r="32.003"/>
<path style="fill:#603813;" d="M55.831,143.986c0-13.425,8.283-24.878,20.003-29.631c-3.711-1.506-7.75-2.374-12.002-2.374
	c-17.675,0-32.003,14.328-32.003,32.003s14.328,32.003,32.003,32.003c4.251,0,8.29-0.868,12.002-2.374
	C64.114,168.864,55.831,157.409,55.831,143.986z"/>
<path d="M63.832,183.814c-21.961,0-39.829-17.867-39.829-39.829s17.867-39.829,39.829-39.829s39.829,17.867,39.829,39.829
	C103.66,165.947,85.793,183.814,63.832,183.814z M63.832,119.807c-13.332,0-24.178,10.847-24.178,24.178
	s10.847,24.178,24.178,24.178s24.178-10.847,24.178-24.178S77.163,119.807,63.832,119.807z"/>
<rect x="167.696" y="176.126" style="fill:#FF1D25;" width="231.622" height="15.65"/>
<rect x="407.665" y="176.126" style="fill:#FF931E;" width="80.337" height="15.65"/>
<g>
	<rect x="496.349" y="176.126" style="fill:#FF1D25;" width="15.65" height="15.65"/>
	<rect x="167.696" y="144.826" style="fill:#FF1D25;" width="231.622" height="15.65"/>
</g>
<rect x="407.665" y="144.826" style="fill:#FF931E;" width="80.337" height="15.65"/>
<rect x="496.349" y="144.826" style="fill:#FF1D25;" width="15.65" height="15.65"/>
<circle style="fill:#C69C6D;" cx="71.833" cy="135.989" r="8.001"/>
<polygon points="198.998,224.122 143.7,224.122 143.7,111.441 198.998,111.441 198.998,136.481 183.347,136.481 183.347,127.091 
	159.351,127.091 159.351,208.472 183.347,208.472 183.347,200.125 198.998,200.125 "/>
<g>
</g>
<g>
</g>
<g>
</g>
<g>
</g>
<g>
</g>
<g>
</g>
<g>
</g>
<g>
</g>
<g>
</g>
<g>
</g>
<g>
</g>
<g>
</g>
<g>
</g>
<g>
</g>
<g>
</g>
</svg>
